<?xml version="1.0" standalone="no"?>
<!DOCTYPE svg PUBLIC "-//W3C//DTD SVG 20010904//EN"
 "http://www.w3.org/TR/2001/REC-SVG-20010904/DTD/svg10.dtd">
<svg version="1.0" xmlns="http://www.w3.org/2000/svg"
 width="137.000000pt" height="137.000000pt" viewBox="0 0 137.000000 137.000000"
 preserveAspectRatio="xMidYMid meet">
<metadata>
Created by potrace 1.11, written by Peter Selinger 2001-2013
</metadata>
<g transform="translate(0.000000,137.000000) scale(0.100000,-0.100000)"
fill="#000000" stroke="none">
<path d="M598 1245 c-2 -1 -39 -5 -83 -8 -44 -4 -90 -8 -101 -11 -21 -4 -66
-12 -134 -22 -104 -16 -144 -35 -207 -100 -60 -61 -63 -66 -63 -114 0 -37 5
-57 20 -72 26 -28 42 -30 118 -13 97 23 97 23 61 -47 -52 -104 -110 -264 -169
-468 -33 -115 -32 -139 2 -192 18 -28 39 -48 49 -48 10 0 20 -4 24 -10 18 -29
139 70 143 117 2 25 31 106 92 258 73 182 93 232 105 255 22 42 66 181 60 190
-8 13 34 19 119 16 l80 -3 48 44 c52 50 61 79 39 133 -27 69 -34 80 -55 86
-21 7 -142 14 -148 9z"/>
<path d="M1080 1214 c-100 -46 -183 -118 -327 -280 -52 -59 -152 -242 -186
-339 -23 -68 -22 -187 2 -240 28 -62 124 -151 176 -164 85 -21 172 -8 230 35
46 34 139 125 167 164 14 19 37 59 52 88 16 32 33 52 44 52 9 0 44 25 76 56
44 41 56 58 46 64 -8 5 -14 17 -15 28 -1 10 -17 38 -36 60 -42 51 -98 67 -204
59 -76 -6 -121 -23 -164 -61 l-24 -21 23 40 c57 98 181 237 197 221 3 -3 -2
-24 -12 -46 -24 -53 -12 -100 29 -115 26 -9 32 -6 84 50 65 70 91 124 92 183
0 39 -25 107 -53 142 -43 56 -112 64 -197 24z m-186 -635 c-3 -20 3 -33 18
-43 12 -8 25 -13 30 -10 4 3 8 0 8 -5 0 -13 -78 -71 -95 -71 -15 0 -13 35 4
107 13 53 40 71 35 22z"/>
</g>
</svg>
